<svg xmlns="http://www.w3.org/2000/svg" viewBox="0 0 1440 1024" preserveAspectRatio="xMidYMid slice">
  <defs>
    <linearGradient id="ocean_bg" x1="0%" y1="0%" x2="100%" y2="100%">
      <stop offset="0%" style="stop-color:#0077be;stop-opacity:1" />
      <stop offset="100%" style="stop-color:#001a33;stop-opacity:1" />
    </linearGradient>
    <radialGradient id="sun" cx="15%" cy="15%" r="50%" fx="15%" fy="15%">
      <stop offset="0%" style="stop-color:#ffd700;stop-opacity:1" />
      <stop offset="100%" style="stop-color:#ff8c00;stop-opacity:0" />
    </radialGradient>
  </defs>
  
  <!-- Ocean background -->
  <rect width="100%" height="100%" fill="url(#ocean_bg)"/>
  
  <!-- Sun -->
  <circle cx="15%" cy="15%" r="120" fill="url(#sun)" opacity="0.8">
    <animate attributeName="opacity" values="0.8;0.6;0.8" dur="10s" repeatCount="indefinite" />
  </circle>
  
  <!-- Waves -->
  <g>
    <path d="M-100,464 C250,464 250,414 600,414 S950,464 1300,464 S1650,414 2000,414 V1024 H-100 Z" fill="#4a98c9" opacity="0.6">
      <animate attributeName="d" values="M-100,464 C250,464 250,414 600,414 S950,464 1300,464 S1650,414 2000,414 V1024 H-100 Z;M-100,414 C250,414 250,464 600,464 S950,414 1300,414 S1650,464 2000,464 V1024 H-100 Z;M-100,464 C250,464 250,414 600,414 S950,464 1300,464 S1650,414 2000,414 V1024 H-100 Z" dur="20s" repeatCount="indefinite"/>
    </path>
    <path d="M-100,484 C250,484 250,434 600,434 S950,484 1300,484 S1650,434 2000,434 V1024 H-100 Z" fill="#3a89c9" opacity="0.7">
      <animate attributeName="d" values="M-100,484 C250,484 250,434 600,434 S950,484 1300,484 S1650,434 2000,434 V1024 H-100 Z;M-100,434 C250,434 250,484 600,484 S950,434 1300,434 S1650,484 2000,484 V1024 H-100 Z;M-100,484 C250,484 250,434 600,434 S950,484 1300,484 S1650,434 2000,434 V1024 H-100 Z" dur="15s" repeatCount="indefinite"/>
    </path>
    <path d="M-100,504 C250,504 250,454 600,454 S950,504 1300,504 S1650,454 2000,454 V1024 H-100 Z" fill="#2d7fc9" opacity="0.8">
      <animate attributeName="d" values="M-100,504 C250,504 250,454 600,454 S950,504 1300,504 S1650,454 2000,454 V1024 H-100 Z;M-100,454 C250,454 250,504 600,504 S950,454 1300,454 S1650,504 2000,504 V1024 H-100 Z;M-100,504 C250,504 250,454 600,454 S950,504 1300,504 S1650,454 2000,454 V1024 H-100 Z" dur="10s" repeatCount="indefinite"/>
    </path>
  </g>
</svg>

