<svg xmlns="http://www.w3.org/2000/svg" width="100%" height="100%" viewBox="0 0 1000 1000">
  <defs>
    <linearGradient id="grad1" x1="0%" y1="0%" x2="100%" y2="100%">
      <stop offset="0%" style="stop-color:#2c3e50;stop-opacity:1" />
      <stop offset="100%" style="stop-color:#1a202c;stop-opacity:1" />
    </linearGradient>
    <radialGradient id="grad2" cx="50%" cy="50%" r="50%" fx="50%" fy="50%">
      <stop offset="0%" style="stop-color:#4a5568;stop-opacity:0.3" />
      <stop offset="100%" style="stop-color:#2d3748;stop-opacity:0" />
    </radialGradient>
    <filter id="noise" x="0%" y="0%" width="100%" height="100%">
      <feTurbulence type="fractalNoise" baseFrequency="0.65" numOctaves="3" stitchTiles="stitch"/>
      <feColorMatrix type="saturate" values="0"/>
      <feBlend in="SourceGraphic" in2="noise" mode="overlay"/>
    </filter>
  </defs>
  
  <rect width="100%" height="100%" fill="url(#grad1)"/>
  <rect width="100%" height="100%" fill="url(#grad2)"/>
  <rect width="100%" height="100%" filter="url(#noise)" opacity="0.1"/>
  
  <g fill="none" stroke="#4a5568" stroke-width="0.5" opacity="0.2">
    <path d="M100,100 Q500,0 900,100 T900,900 100,900 100,100" />
    <path d="M200,200 Q500,100 800,200 T800,800 200,800 200,200" />
    <path d="M0,0 L1000,1000 M0,1000 L1000,0" />
  </g>
  
  <g>
    <circle cx="10%" cy="20%" r="3">
      <animate attributeName="r" values="3;5;3" dur="5s" repeatCount="indefinite" />
      <animate attributeName="opacity" values="0.3;0.1;0.3" dur="5s" repeatCount="indefinite" />
    </circle>
    <circle cx="85%" cy="10%" r="4">
      <animate attributeName="r" values="4;6;4" dur="7s" repeatCount="indefinite" />
      <animate attributeName="opacity" values="0.4;0.2;0.4" dur="7s" repeatCount="indefinite" />
    </circle>
    <circle cx="90%" cy="80%" r="5">
      <animate attributeName="r" values="5;7;5" dur="6s" repeatCount="indefinite" />
      <animate attributeName="opacity" values="0.2;0.1;0.2" dur="6s" repeatCount="indefinite" />
    </circle>
  </g>
</svg>

