<svg width="1440" height="320" viewBox="0 0 1440 320" xmlns="http://www.w3.org/2000/svg">
  <path
    fill="#3B82F6"
    fillOpacity="0.2"
    d="M0,64L48,80C96,96,192,128,288,128C384,128,480,96,576,90.7C672,85,768,107,864,122.7C960,139,1056,149,1152,138.7C1248,128,1344,96,1392,80L1440,64L1440,320L1392,320C1344,320,1248,320,1152,320C1056,320,960,320,864,320C768,320,672,320,576,320C480,320,384,320,288,320C192,320,96,320,48,320L0,320Z"
  />
  <path
    fill="#60A5FA"
    fillOpacity="0.3"
    d="M0,160L48,176C96,192,192,224,288,213.3C384,203,480,149,576,117.3C672,85,768,75,864,90.7C960,107,1056,149,1152,160C1248,171,1344,149,1392,138.7L1440,128L1440,320L1392,320C1344,320,1248,320,1152,320C1056,320,960,320,864,320C768,320,672,320,576,320C480,320,384,320,288,320C192,320,96,320,48,320L0,320Z"
  />
</svg>

